# xmcd CD database file
#
# Track frame offsets:
#	150
#	22670
#	47195
#	63212
#	77344
#	100696
#	117461
#	151033
#	172091
#	206616
#
# Disc length: 2980 seconds
#
# Revision: 0
# Processed by: cddbd v1.5.1PL0 Copyright (c) Steve Scherf et al.
# Submitted via: CDex 1.51
#
DISCID=700ba20a
DTITLE=Varios - Blues Latino
DYEAR=2005
DGENRE=Blues
TTITLE0=Lleveme - El Cruce
TTITLE1=Soledad - El Cruce
TTITLE2=Ruido - Banda de La Luna Azul
TTITLE3=Sir Percival - Sociedad Havana Blues
TTITLE4=SOS hombre al agua - Sociedad Havana Blues
TTITLE5=Berimbau blues - Dinho Nascimento
TTITLE6=Querosene blues - Dinho Nascimento
TTITLE7=Pe vermeio - Sergio Duarte e Ricardo Vignini
TTITLE8=Jam blues com Bob Brozman - Sergio Duarte e Ricardo Vignini
TTITLE9=Forro brecado - The Bluz e Tavares da Gaita
EXTD=YEAR: 2005
EXTT0=
EXTT1=
EXTT2=
EXTT3=
EXTT4=
EXTT5=
EXTT6=
EXTT7=
EXTT8=
EXTT9=
PLAYORDER=
